<svg height="512" viewBox="0 0 64 64" width="512" xmlns="http://www.w3.org/2000/svg" xmlns:xlink="http://www.w3.org/1999/xlink"><linearGradient id="linear-gradient" gradientUnits="userSpaceOnUse" x1="2" x2="62" y1="32" y2="32"><stop offset="0" stop-color="#0fdcdd"/><stop offset="1" stop-color="#46a1e8"/></linearGradient><g id="Icon"><path d="m44 14a17.90629 17.90629 0 0 0 -11.99988 4.62195 18.00005 18.00005 0 1 0 0 26.7561 17.98812 17.98812 0 1 0 11.99988-31.37805zm-12 28.54749a15.90619 15.90619 0 0 1 0-21.095 15.90619 15.90619 0 0 1 0 21.095zm-28-10.54749a15.97347 15.97347 0 0 1 26.58832-11.96289 17.88927 17.88927 0 0 0 0 23.92578 15.97347 15.97347 0 0 1 -26.58832-11.96289zm40 16a15.916 15.916 0 0 1 -10.5882-4.037 17.88993 17.88993 0 0 0 0-23.926 15.98993 15.98993 0 1 1 10.5882 27.963z" fill="url(#linear-gradient)"/></g></svg>