<svg enable-background="new 0 0 64 64" height="64" viewBox="0 0 64 64" width="64" xmlns="http://www.w3.org/2000/svg"><g id="Layer_1"/><g id="Layer_2"/><g id="Layer_3"/><g id="Layer_4"/><g id="Layer_5"/><g id="Layer_6"/><g id="Layer_7"/><g id="Layer_8"/><g id="Layer_9"/><g id="Layer_10"/><g id="Layer_11"/><g id="Layer_12"/><g id="Layer_13"/><g id="Layer_14"/><g id="Layer_15"/><g id="Layer_16"/><g id="Layer_17"/><g id="Layer_18"/><g id="Layer_19"/><g id="Layer_20"><path d="m43.28 13.75c-4.261 0-8.17 1.47-11.28 3.92-3.11-2.45-7.02-3.92-11.28-3.92-10.06 0-18.25 8.19-18.25 18.25s8.19 18.25 18.25 18.25c4.261 0 8.17-1.47 11.28-3.92 3.11 2.45 7.02 3.92 11.28 3.92 10.06 0 18.25-8.19 18.25-18.25s-8.19-18.25-18.25-18.25zm-9.04 9.25h-4.48c.65-.97 1.4-1.87 2.24-2.67.84.8 1.59 1.7 2.24 2.67zm-5.63 16c-.301-.65-.57-1.31-.79-2h8.359c-.22.69-.489 1.35-.79 2zm-1.3-4c-.119-.65-.21-1.32-.25-2h9.881c-.04.69-.12 1.35-.25 2zm-.25-4c.04-.68.131-1.35.25-2h9.381c.13.65.21 1.31.25 2zm.76-4c.22-.69.489-1.35.79-2h6.779c.301.65.57 1.31.79 2zm-7.1 21.25c-8.96 0-16.25-7.29-16.25-16.25s7.29-16.25 16.25-16.25c3.66 0 7.04 1.21 9.75 3.26-3.36 3.32-5.44 7.92-5.44 12.99s2.08 9.67 5.439 12.99c-2.709 2.05-6.089 3.26-9.749 3.26zm9.04-7.25h4.48c-.65.97-1.4 1.87-2.24 2.67-.84-.8-1.59-1.7-2.24-2.67zm13.52 7.25c-3.66 0-7.04-1.21-9.75-3.26 3.36-3.32 5.44-7.92 5.44-12.99s-2.08-9.67-5.439-12.99c2.71-2.05 6.09-3.26 9.75-3.26 8.96 0 16.25 7.29 16.25 16.25s-7.291 16.25-16.251 16.25z"/></g><g id="Layer_21"/><g id="Layer_22"/><g id="Layer_23"/><g id="Layer_24"/><g id="Layer_25"/><g id="Layer_26"/><g id="Layer_27"/><g id="Layer_28"/><g id="Layer_29"/><g id="Layer_30"/><g id="Layer_31"/></svg>